<?xml version="1.0" encoding="UTF-8" standalone="no"?>
<!DOCTYPE svg PUBLIC "-//W3C//DTD SVG 1.1//EN"
 "http://www.w3.org/Graphics/SVG/1.1/DTD/svg11.dtd">
<!-- Generated by graphviz version 2.40.1 (20161225.0304)
 -->
<!-- Title: %3 Pages: 1 -->
<svg width="957pt" height="548pt"
 viewBox="0.00 0.00 957.20 548.00" xmlns="http://www.w3.org/2000/svg" xmlns:xlink="http://www.w3.org/1999/xlink">
<g id="graph0" class="graph" transform="scale(1 1) rotate(0) translate(4 544)">
<title>%3</title>
<polygon fill="#ffffff" stroke="transparent" points="-4,4 -4,-544 953.1992,-544 953.1992,4 -4,4"/>
<!-- [root] google_compute_firewall.firewall -->
<g id="node1" class="node">
<title>[root] google_compute_firewall.firewall</title>
<polygon fill="none" stroke="#000000" points="495.6157,-396 289.9315,-396 289.9315,-360 495.6157,-360 495.6157,-396"/>
<text text-anchor="middle" x="392.7736" y="-373.8" font-family="Times,serif" font-size="14.00" fill="#000000">google_compute_firewall.firewall</text>
</g>
<!-- [root] google_compute_network.vpc -->
<g id="node3" class="node">
<title>[root] google_compute_network.vpc</title>
<polygon fill="none" stroke="#000000" points="539.674,-180 353.8732,-180 353.8732,-144 539.674,-144 539.674,-180"/>
<text text-anchor="middle" x="446.7736" y="-157.8" font-family="Times,serif" font-size="14.00" fill="#000000">google_compute_network.vpc</text>
</g>
<!-- [root] google_compute_firewall.firewall&#45;&gt;[root] google_compute_network.vpc -->
<g id="edge1" class="edge">
<title>[root] google_compute_firewall.firewall&#45;&gt;[root] google_compute_network.vpc</title>
<path fill="none" stroke="#000000" d="M392.2574,-359.895C391.957,-329.2955 393.8192,-265.8176 411.7736,-216 415.2034,-206.4833 420.5856,-196.9432 426.1099,-188.5867"/>
<polygon fill="#000000" stroke="#000000" points="428.9984,-190.5635 431.8425,-180.3575 423.2546,-186.5623 428.9984,-190.5635"/>
</g>
<!-- [root] google_compute_instance.instance -->
<g id="node2" class="node">
<title>[root] google_compute_instance.instance</title>
<polygon fill="none" stroke="#000000" points="683.3229,-324 472.2243,-324 472.2243,-288 683.3229,-288 683.3229,-324"/>
<text text-anchor="middle" x="577.7736" y="-301.8" font-family="Times,serif" font-size="14.00" fill="#000000">google_compute_instance.instance</text>
</g>
<!-- [root] google_compute_subnetwork.subnet -->
<g id="node4" class="node">
<title>[root] google_compute_subnetwork.subnet</title>
<polygon fill="none" stroke="#000000" points="808.4603,-252 587.0868,-252 587.0868,-216 808.4603,-216 808.4603,-252"/>
<text text-anchor="middle" x="697.7736" y="-229.8" font-family="Times,serif" font-size="14.00" fill="#000000">google_compute_subnetwork.subnet</text>
</g>
<!-- [root] google_compute_instance.instance&#45;&gt;[root] google_compute_subnetwork.subnet -->
<g id="edge2" class="edge">
<title>[root] google_compute_instance.instance&#45;&gt;[root] google_compute_subnetwork.subnet</title>
<path fill="none" stroke="#000000" d="M608.0547,-287.8314C623.4034,-278.6221 642.2234,-267.3301 658.6559,-257.4706"/>
<polygon fill="#000000" stroke="#000000" points="660.728,-260.3091 667.5022,-252.1628 657.1265,-254.3066 660.728,-260.3091"/>
</g>
<!-- [root] var.ssh_key -->
<g id="node6" class="node">
<title>[root] var.ssh_key</title>
<ellipse fill="none" stroke="#000000" cx="494.7736" cy="-234" rx="73.9344" ry="18"/>
<text text-anchor="middle" x="494.7736" y="-229.8" font-family="Times,serif" font-size="14.00" fill="#000000">[root] var.ssh_key</text>
</g>
<!-- [root] google_compute_instance.instance&#45;&gt;[root] var.ssh_key -->
<g id="edge3" class="edge">
<title>[root] google_compute_instance.instance&#45;&gt;[root] var.ssh_key</title>
<path fill="none" stroke="#000000" d="M556.8292,-287.8314C546.4726,-278.8473 533.831,-267.8812 522.6668,-258.1965"/>
<polygon fill="#000000" stroke="#000000" points="524.6997,-255.3266 514.8523,-251.4177 520.1128,-260.6144 524.6997,-255.3266"/>
</g>
<!-- [root] provider.google -->
<g id="node5" class="node">
<title>[root] provider.google</title>
<polygon fill="none" stroke="#000000" points="358.7736,-108 265.4872,-90 358.7736,-72 452.06,-90 358.7736,-108"/>
<text text-anchor="middle" x="358.7736" y="-85.8" font-family="Times,serif" font-size="14.00" fill="#000000">provider.google</text>
</g>
<!-- [root] google_compute_network.vpc&#45;&gt;[root] provider.google -->
<g id="edge4" class="edge">
<title>[root] google_compute_network.vpc&#45;&gt;[root] provider.google</title>
<path fill="none" stroke="#000000" d="M424.5675,-143.8314C412.4549,-133.9211 397.3944,-121.5988 384.7402,-111.2454"/>
<polygon fill="#000000" stroke="#000000" points="386.7832,-108.3948 376.8273,-104.7712 382.3506,-113.8125 386.7832,-108.3948"/>
</g>
<!-- [root] var.name -->
<g id="node7" class="node">
<title>[root] var.name</title>
<ellipse fill="none" stroke="#000000" cx="534.7736" cy="-90" rx="64.7459" ry="18"/>
<text text-anchor="middle" x="534.7736" y="-85.8" font-family="Times,serif" font-size="14.00" fill="#000000">[root] var.name</text>
</g>
<!-- [root] google_compute_network.vpc&#45;&gt;[root] var.name -->
<g id="edge5" class="edge">
<title>[root] google_compute_network.vpc&#45;&gt;[root] var.name</title>
<path fill="none" stroke="#000000" d="M468.9797,-143.8314C480.1495,-134.6924 493.8262,-123.5024 505.811,-113.6967"/>
<polygon fill="#000000" stroke="#000000" points="508.263,-116.2127 513.7862,-107.1715 503.8303,-110.795 508.263,-116.2127"/>
</g>
<!-- [root] google_compute_subnetwork.subnet&#45;&gt;[root] google_compute_network.vpc -->
<g id="edge6" class="edge">
<title>[root] google_compute_subnetwork.subnet&#45;&gt;[root] google_compute_network.vpc</title>
<path fill="none" stroke="#000000" d="M634.7597,-215.9243C599.8498,-205.9103 556.2794,-193.412 519.8774,-182.97"/>
<polygon fill="#000000" stroke="#000000" points="520.3909,-179.4762 509.8134,-180.0831 518.4607,-186.2049 520.3909,-179.4762"/>
</g>
<!-- [root] var.subnet_cidr -->
<g id="node8" class="node">
<title>[root] var.subnet_cidr</title>
<ellipse fill="none" stroke="#000000" cx="697.7736" cy="-162" rx="86.9636" ry="18"/>
<text text-anchor="middle" x="697.7736" y="-157.8" font-family="Times,serif" font-size="14.00" fill="#000000">[root] var.subnet_cidr</text>
</g>
<!-- [root] google_compute_subnetwork.subnet&#45;&gt;[root] var.subnet_cidr -->
<g id="edge7" class="edge">
<title>[root] google_compute_subnetwork.subnet&#45;&gt;[root] var.subnet_cidr</title>
<path fill="none" stroke="#000000" d="M697.7736,-215.8314C697.7736,-208.131 697.7736,-198.9743 697.7736,-190.4166"/>
<polygon fill="#000000" stroke="#000000" points="701.2737,-190.4132 697.7736,-180.4133 694.2737,-190.4133 701.2737,-190.4132"/>
</g>
<!-- [root] var.credentials -->
<g id="node12" class="node">
<title>[root] var.credentials</title>
<ellipse fill="none" stroke="#000000" cx="83.7736" cy="-18" rx="83.5478" ry="18"/>
<text text-anchor="middle" x="83.7736" y="-13.8" font-family="Times,serif" font-size="14.00" fill="#000000">[root] var.credentials</text>
</g>
<!-- [root] provider.google&#45;&gt;[root] var.credentials -->
<g id="edge13" class="edge">
<title>[root] provider.google&#45;&gt;[root] var.credentials</title>
<path fill="none" stroke="#000000" d="M319.0799,-79.6075C274.0849,-67.827 200.1183,-48.4612 147.1213,-34.5856"/>
<polygon fill="#000000" stroke="#000000" points="147.7096,-31.1217 137.1492,-31.9747 145.9366,-37.8935 147.7096,-31.1217"/>
</g>
<!-- [root] var.gcp_project -->
<g id="node13" class="node">
<title>[root] var.gcp_project</title>
<ellipse fill="none" stroke="#000000" cx="272.7736" cy="-18" rx="87.4307" ry="18"/>
<text text-anchor="middle" x="272.7736" y="-13.8" font-family="Times,serif" font-size="14.00" fill="#000000">[root] var.gcp_project</text>
</g>
<!-- [root] provider.google&#45;&gt;[root] var.gcp_project -->
<g id="edge14" class="edge">
<title>[root] provider.google&#45;&gt;[root] var.gcp_project</title>
<path fill="none" stroke="#000000" d="M340.9543,-75.0816C329.6278,-65.5989 314.7022,-53.103 301.7042,-42.221"/>
<polygon fill="#000000" stroke="#000000" points="303.824,-39.431 293.9096,-35.6953 299.3304,-44.7984 303.824,-39.431"/>
</g>
<!-- [root] var.region -->
<g id="node14" class="node">
<title>[root] var.region</title>
<ellipse fill="none" stroke="#000000" cx="445.7736" cy="-18" rx="68.1287" ry="18"/>
<text text-anchor="middle" x="445.7736" y="-13.8" font-family="Times,serif" font-size="14.00" fill="#000000">[root] var.region</text>
</g>
<!-- [root] provider.google&#45;&gt;[root] var.region -->
<g id="edge15" class="edge">
<title>[root] provider.google&#45;&gt;[root] var.region</title>
<path fill="none" stroke="#000000" d="M376.8,-75.0816C388.4232,-65.4624 403.7927,-52.7428 417.0729,-41.7523"/>
<polygon fill="#000000" stroke="#000000" points="419.5471,-44.2478 425.0196,-35.1757 415.0841,-38.8551 419.5471,-44.2478"/>
</g>
<!-- [root] var.zone -->
<g id="node15" class="node">
<title>[root] var.zone</title>
<ellipse fill="none" stroke="#000000" cx="593.7736" cy="-18" rx="62.3321" ry="18"/>
<text text-anchor="middle" x="593.7736" y="-13.8" font-family="Times,serif" font-size="14.00" fill="#000000">[root] var.zone</text>
</g>
<!-- [root] provider.google&#45;&gt;[root] var.zone -->
<g id="edge16" class="edge">
<title>[root] provider.google&#45;&gt;[root] var.zone</title>
<path fill="none" stroke="#000000" d="M394.9773,-78.9078C433.9983,-66.9524 496.4814,-47.8087 540.9768,-34.1761"/>
<polygon fill="#000000" stroke="#000000" points="542.2098,-37.4589 550.7457,-31.183 540.1591,-30.766 542.2098,-37.4589"/>
</g>
<!-- [root] meta.count&#45;boundary (count boundary fixup) -->
<g id="node9" class="node">
<title>[root] meta.count&#45;boundary (count boundary fixup)</title>
<ellipse fill="none" stroke="#000000" cx="584.7736" cy="-450" rx="191.6931" ry="18"/>
<text text-anchor="middle" x="584.7736" y="-445.8" font-family="Times,serif" font-size="14.00" fill="#000000">[root] meta.count&#45;boundary (count boundary fixup)</text>
</g>
<!-- [root] meta.count&#45;boundary (count boundary fixup)&#45;&gt;[root] google_compute_firewall.firewall -->
<g id="edge8" class="edge">
<title>[root] meta.count&#45;boundary (count boundary fixup)&#45;&gt;[root] google_compute_firewall.firewall</title>
<path fill="none" stroke="#000000" d="M537.8051,-432.3868C511.4881,-422.518 478.4513,-410.1291 450.5583,-399.6693"/>
<polygon fill="#000000" stroke="#000000" points="451.5184,-396.2914 440.9261,-396.0572 449.0605,-402.8457 451.5184,-396.2914"/>
</g>
<!-- [root] output.ip -->
<g id="node10" class="node">
<title>[root] output.ip</title>
<ellipse fill="none" stroke="#000000" cx="577.7736" cy="-378" rx="64.2873" ry="18"/>
<text text-anchor="middle" x="577.7736" y="-373.8" font-family="Times,serif" font-size="14.00" fill="#000000">[root] output.ip</text>
</g>
<!-- [root] meta.count&#45;boundary (count boundary fixup)&#45;&gt;[root] output.ip -->
<g id="edge9" class="edge">
<title>[root] meta.count&#45;boundary (count boundary fixup)&#45;&gt;[root] output.ip</title>
<path fill="none" stroke="#000000" d="M583.0072,-431.8314C582.2585,-424.131 581.3683,-414.9743 580.5363,-406.4166"/>
<polygon fill="#000000" stroke="#000000" points="584.0151,-406.0276 579.5638,-396.4133 577.0479,-406.7051 584.0151,-406.0276"/>
</g>
<!-- [root] output.ip&#45;&gt;[root] google_compute_instance.instance -->
<g id="edge10" class="edge">
<title>[root] output.ip&#45;&gt;[root] google_compute_instance.instance</title>
<path fill="none" stroke="#000000" d="M577.7736,-359.8314C577.7736,-352.131 577.7736,-342.9743 577.7736,-334.4166"/>
<polygon fill="#000000" stroke="#000000" points="581.2737,-334.4132 577.7736,-324.4133 574.2737,-334.4133 581.2737,-334.4132"/>
</g>
<!-- [root] provider.google (close) -->
<g id="node11" class="node">
<title>[root] provider.google (close)</title>
<ellipse fill="none" stroke="#000000" cx="260.7736" cy="-450" rx="114.4592" ry="18"/>
<text text-anchor="middle" x="260.7736" y="-445.8" font-family="Times,serif" font-size="14.00" fill="#000000">[root] provider.google (close)</text>
</g>
<!-- [root] provider.google (close)&#45;&gt;[root] google_compute_firewall.firewall -->
<g id="edge11" class="edge">
<title>[root] provider.google (close)&#45;&gt;[root] google_compute_firewall.firewall</title>
<path fill="none" stroke="#000000" d="M292.7271,-432.5708C310.1689,-423.0571 331.9791,-411.1606 350.7802,-400.9055"/>
<polygon fill="#000000" stroke="#000000" points="352.6329,-403.8818 359.7358,-396.0206 349.2809,-397.7365 352.6329,-403.8818"/>
</g>
<!-- [root] provider.google (close)&#45;&gt;[root] google_compute_instance.instance -->
<g id="edge12" class="edge">
<title>[root] provider.google (close)&#45;&gt;[root] google_compute_instance.instance</title>
<path fill="none" stroke="#000000" d="M259.3595,-431.6491C258.8678,-411.1844 261.5092,-378.5308 280.7736,-360 306.7014,-335.0596 390.2411,-321.3389 462.1411,-313.977"/>
<polygon fill="#000000" stroke="#000000" points="462.5961,-317.4491 472.2021,-312.9799 461.9056,-310.4833 462.5961,-317.4491"/>
</g>
<!-- [root] provisioner.remote&#45;exec (close) -->
<g id="node16" class="node">
<title>[root] provisioner.remote&#45;exec (close)</title>
<ellipse fill="none" stroke="#000000" cx="804.7736" cy="-378" rx="144.3512" ry="18"/>
<text text-anchor="middle" x="804.7736" y="-373.8" font-family="Times,serif" font-size="14.00" fill="#000000">[root] provisioner.remote&#45;exec (close)</text>
</g>
<!-- [root] provisioner.remote&#45;exec (close)&#45;&gt;[root] google_compute_instance.instance -->
<g id="edge17" class="edge">
<title>[root] provisioner.remote&#45;exec (close)&#45;&gt;[root] google_compute_instance.instance</title>
<path fill="none" stroke="#000000" d="M751.8387,-361.2101C719.8827,-351.0742 678.868,-338.0652 644.679,-327.2211"/>
<polygon fill="#000000" stroke="#000000" points="645.3593,-323.7651 634.7691,-324.0779 643.2429,-330.4375 645.3593,-323.7651"/>
</g>
<!-- [root] root -->
<g id="node17" class="node">
<title>[root] root</title>
<ellipse fill="none" stroke="#000000" cx="584.7736" cy="-522" rx="46.8976" ry="18"/>
<text text-anchor="middle" x="584.7736" y="-517.8" font-family="Times,serif" font-size="14.00" fill="#000000">[root] root</text>
</g>
<!-- [root] root&#45;&gt;[root] meta.count&#45;boundary (count boundary fixup) -->
<g id="edge18" class="edge">
<title>[root] root&#45;&gt;[root] meta.count&#45;boundary (count boundary fixup)</title>
<path fill="none" stroke="#000000" d="M584.7736,-503.8314C584.7736,-496.131 584.7736,-486.9743 584.7736,-478.4166"/>
<polygon fill="#000000" stroke="#000000" points="588.2737,-478.4132 584.7736,-468.4133 581.2737,-478.4133 588.2737,-478.4132"/>
</g>
<!-- [root] root&#45;&gt;[root] provider.google (close) -->
<g id="edge19" class="edge">
<title>[root] root&#45;&gt;[root] provider.google (close)</title>
<path fill="none" stroke="#000000" d="M544.0668,-512.9541C492.2543,-501.4402 401.7097,-481.3191 336.9244,-466.9224"/>
<polygon fill="#000000" stroke="#000000" points="337.6807,-463.5052 327.1595,-464.7524 336.1621,-470.3385 337.6807,-463.5052"/>
</g>
<!-- [root] root&#45;&gt;[root] provisioner.remote&#45;exec (close) -->
<g id="edge20" class="edge">
<title>[root] root&#45;&gt;[root] provisioner.remote&#45;exec (close)</title>
<path fill="none" stroke="#000000" d="M628.5928,-515.6612C681.0167,-507.1831 764.4063,-490.5625 785.7736,-468 801.2462,-451.6619 805.4422,-426.0432 806.0878,-406.3099"/>
<polygon fill="#000000" stroke="#000000" points="809.5888,-406.0633 806.1302,-396.0489 802.5888,-406.0343 809.5888,-406.0633"/>
</g>
</g>
</svg>
